<svg width="235" height="250" viewBox="0 0 235 250" fill="none" xmlns="http://www.w3.org/2000/svg">
<path d="M117.5 15.5C178.651 15.5 228.5 66.6088 228.5 130C228.5 193.391 178.651 244.5 117.5 244.5C56.3487 244.5 6.5 193.391 6.5 130C6.5 66.6088 56.3487 15.5 117.5 15.5Z" fill="url(#paint0_linear_262_795)" stroke="white" stroke-width="11"/>
<mask id="path-2-inside-1_262_795" fill="white">
<path d="M121 104L154 133H87L121 104Z"/>
</mask>
<path d="M121 104L154 133H87L121 104Z" fill="white"/>
<path d="M121 104L145.424 76.2069L121.361 55.0608L96.989 75.8491L121 104ZM154 133V170H252.154L178.424 105.207L154 133ZM87 133L62.989 104.849L-13.3948 170H87V133ZM121 104L96.5758 131.793L129.576 160.793L154 133L178.424 105.207L145.424 76.2069L121 104ZM154 133V96H87V133V170H154V133ZM87 133L111.011 161.151L145.011 132.151L121 104L96.989 75.8491L62.989 104.849L87 133Z" fill="white" mask="url(#path-2-inside-1_262_795)"/>
<rect x="87" y="133" width="67" height="111" fill="white"/>
<path d="M121.122 107.109L151 134.03L90.9995 134.03L121.122 107.109Z" fill="#1D2D3A"/>
<rect x="91" y="134" width="60" height="109" fill="#1D2D3A"/>
<path d="M110.964 242.893C108.643 242.893 76.143 229.893 69.1787 226.643H182.464C171.941 231.286 149.779 241.036 145.322 242.893C139.75 245.214 113.286 242.893 110.964 242.893Z" fill="#1D2D3A" stroke="#1D2D3A" stroke-width="4"/>
<path d="M96 134H147V243H96V134Z" fill="#FFE1AB"/>
<rect x="151" y="160" width="31" height="67" fill="white"/>
<rect x="149" y="163" width="29" height="66" fill="#1D2D3A"/>
<rect x="151" y="166" width="24" height="68" fill="#FFE1AB"/>
<path d="M88 224H53V151H88V224Z" fill="white"/>
<path d="M88 224H53V151H88V224Z" stroke="white"/>
<path d="M55.7144 154.214H95.6429V227.571H55.7144V154.214Z" fill="#1D2D3A"/>
<path d="M63.1428 160.714H72.4285V171.857H63.1428V160.714Z" fill="#D9D9D9"/>
<path d="M63.1428 160.714H72.4285V171.857H63.1428V160.714Z" fill="#D9D9D9"/>
<path d="M63.1428 160.714H72.4285V171.857H63.1428V160.714Z" fill="#D9D9D9"/>
<path d="M63.1428 160.714H72.4285V171.857H63.1428V160.714Z" fill="#D9D9D9"/>
<path d="M63.1428 160.714H72.4285V171.857H63.1428V160.714Z" fill="#D9D9D9"/>
<path d="M76.1428 160.714H85.4285V171.857H76.1428V160.714Z" fill="#D9D9D9"/>
<path d="M76.1428 160.714H85.4285V171.857H76.1428V160.714Z" fill="#D9D9D9"/>
<path d="M76.1428 160.714H85.4285V171.857H76.1428V160.714Z" fill="#D9D9D9"/>
<path d="M76.1428 160.714H85.4285V171.857H76.1428V160.714Z" fill="#D9D9D9"/>
<path d="M76.1428 160.714H85.4285V171.857H76.1428V160.714Z" fill="#D9D9D9"/>
<path d="M63.1428 176.5H72.4285V187.643H63.1428V176.5Z" fill="#D9D9D9"/>
<path d="M63.1428 176.5H72.4285V187.643H63.1428V176.5Z" fill="#D9D9D9"/>
<path d="M63.1428 176.5H72.4285V187.643H63.1428V176.5Z" fill="#D9D9D9"/>
<path d="M63.1428 176.5H72.4285V187.643H63.1428V176.5Z" fill="#D9D9D9"/>
<path d="M63.1428 176.5H72.4285V187.643H63.1428V176.5Z" fill="#D9D9D9"/>
<path d="M76.1428 176.5H85.4285V187.643H76.1428V176.5Z" fill="#D9D9D9"/>
<path d="M76.1428 176.5H85.4285V187.643H76.1428V176.5Z" fill="#D9D9D9"/>
<path d="M76.1428 176.5H85.4285V187.643H76.1428V176.5Z" fill="#D9D9D9"/>
<path d="M76.1428 176.5H85.4285V187.643H76.1428V176.5Z" fill="#D9D9D9"/>
<path d="M76.1428 176.5H85.4285V187.643H76.1428V176.5Z" fill="#D9D9D9"/>
<path d="M63.1428 191.357H72.4285V202.5H63.1428V191.357Z" fill="#D9D9D9"/>
<path d="M63.1428 191.357H72.4285V202.5H63.1428V191.357Z" fill="#D9D9D9"/>
<path d="M63.1428 191.357H72.4285V202.5H63.1428V191.357Z" fill="#D9D9D9"/>
<path d="M63.1428 191.357H72.4285V202.5H63.1428V191.357Z" fill="#D9D9D9"/>
<path d="M63.1428 191.357H72.4285V202.5H63.1428V191.357Z" fill="#D9D9D9"/>
<path d="M76.1428 191.357H85.4285V202.5H76.1428V191.357Z" fill="#D9D9D9"/>
<path d="M76.1428 191.357H85.4285V202.5H76.1428V191.357Z" fill="#D9D9D9"/>
<path d="M76.1428 191.357H85.4285V202.5H76.1428V191.357Z" fill="#D9D9D9"/>
<path d="M76.1428 191.357H85.4285V202.5H76.1428V191.357Z" fill="#D9D9D9"/>
<path d="M76.1428 191.357H85.4285V202.5H76.1428V191.357Z" fill="#D9D9D9"/>
<rect x="130" y="170" width="5.57143" height="7.42857" fill="#223440"/>
<rect x="130" y="157" width="5.57143" height="7.42857" fill="#223440"/>
<rect x="130" y="207.143" width="5.57143" height="7.42857" fill="#223440"/>
<rect x="118.857" y="170" width="5.57143" height="7.42857" fill="#223440"/>
<rect x="118.857" y="157" width="5.57143" height="7.42857" fill="#223440"/>
<rect x="118.857" y="207.143" width="5.57143" height="7.42857" fill="#223440"/>
<rect x="106.786" y="170" width="5.57143" height="7.42857" fill="#223440"/>
<rect x="130" y="182.071" width="5.57143" height="7.42857" fill="#223440"/>
<rect x="118.857" y="182.071" width="5.57143" height="7.42857" fill="#223440"/>
<rect x="106.786" y="182.071" width="5.57143" height="7.42857" fill="#223440"/>
<rect x="130" y="194.143" width="5.57143" height="7.42857" fill="#223440"/>
<rect x="118.857" y="194.143" width="5.57143" height="7.42857" fill="#223440"/>
<rect x="106.786" y="194.143" width="5.57143" height="7.42857" fill="#223440"/>
<rect x="106.786" y="157" width="5.57143" height="7.42857" fill="#223440"/>
<rect x="106.786" y="207.143" width="5.57143" height="7.42857" fill="#223440"/>
<path d="M121.5 112L147 134H96L121.5 112Z" fill="#FFE1AB"/>
<rect x="156.929" y="173.714" width="5.57143" height="9.28571" fill="#1D2D3A"/>
<rect x="165.286" y="173.714" width="5.57143" height="9.28571" fill="#1D2D3A"/>
<rect x="156.929" y="189.5" width="5.57143" height="9.28571" fill="#1D2D3A"/>
<rect x="165.286" y="189.5" width="5.57143" height="9.28571" fill="#1D2D3A"/>
<rect x="156.929" y="205.286" width="5.57143" height="9.28571" fill="#1D2D3A"/>
<rect x="165.286" y="205.286" width="5.57143" height="9.28571" fill="#1D2D3A"/>
<path d="M117.464 15.2857C179.484 15.2857 229.929 66.5848 229.929 130.072C229.928 193.559 179.484 244.857 117.464 244.857C55.4437 244.857 5.00022 193.559 5 130.072C5 66.5849 55.4435 15.2859 117.464 15.2857Z" stroke="white" stroke-width="10"/>
<path d="M66.0538 79.4411L90.9338 65.3139L133.52 40.8628L163.312 26.3443L171.503 24.3203C170.931 24.2204 178.165 23.5666 184.928 24.0646C190.498 24.4747 194.794 26.3793 196.45 28.7843C192.549 32.4518 189.582 34.6506 182.974 38.8104L91.0727 87.7311L80.3432 92.1209C76.575 93.5467 64.9248 97.2098 62.6819 97.9305C60.2163 98.7227 51.0257 100.201 45.4163 98.3656L44.6426 97.1711L45.4014 94.6673L47.5884 92.2719L53.6562 87.8808L66.0538 79.4411Z" fill="white"/>
<path d="M170.921 32.2245C171.1 32.2752 171.503 24.3203 171.503 24.3203M171.503 24.3203C170.931 24.2204 178.165 23.5666 184.928 24.0646C190.498 24.4747 194.794 26.3793 196.45 28.7843C192.549 32.4518 189.582 34.6506 182.974 38.8104L91.0727 87.7311L80.3432 92.1209C76.575 93.5467 64.9248 97.2098 62.6819 97.9305C60.2163 98.7227 51.0257 100.201 45.4163 98.3656L44.6426 97.1711L45.4014 94.6673L47.5884 92.2719L53.6562 87.8808L66.0538 79.4411L90.9338 65.3139L133.52 40.8628L163.312 26.3443L171.503 24.3203Z" stroke="white" stroke-width="16"/>
<g clip-path="url(#clip0_262_795)">
<g filter="url(#filter0_d_262_795)">
<path d="M137.95 66.69L118.831 77.2842L144.159 92.8512L155.201 93.6643L137.95 66.69Z" fill="#223440" stroke="white" stroke-width="5"/>
<path d="M54.0604 73.419L98.731 62.7228L42.2598 93.528L23.2387 60.7087L37.8557 58.2406L54.0604 73.419Z" fill="#223440" stroke="white" stroke-width="4"/>
<path d="M147.796 70.7691L148.002 67.9635L148.965 64.8609L149.902 62.1091L152.619 61.9565L154.857 62.4739C154.862 62.3973 157.434 63.7214 157.773 64.099C158.044 64.4011 159.094 65.6067 160.208 67.0992L160.86 68.5575L161.004 71.7416L160.017 74.8424L153.576 74.7207L150.582 74.1477L149.128 72.6302L147.796 70.7691Z" fill="#223440" stroke="white" stroke-width="5"/>
<path d="M148.074 63.0644L136.837 70.6033L136.541 74.6205L136.925 77.2454L138.234 79.0725L140.384 81.2504L144.319 82.694L157.79 76.1851L154.982 75.1127L151.313 73.9771L149.429 72.1074L148.247 68.5585L148.437 65.976L148.074 63.0644Z" fill="#223440" stroke="white" stroke-width="5"/>
<path d="M65.3426 80.951L90.3614 66.6043L133.186 41.7737L163.142 27.0268L171.377 24.9682C170.803 24.8673 178.074 24.1992 184.872 24.6997C190.471 25.112 194.788 27.0409 196.451 29.4793C192.527 33.202 189.543 35.4344 182.898 39.6583L90.4858 89.3427L79.6977 93.8028C75.9089 95.2516 64.1957 98.9752 61.9406 99.7077C59.4617 100.513 50.2223 102.018 44.585 100.161L43.8081 98.9495L44.5725 96.4097L46.7725 93.978L52.8748 89.5203L65.3426 80.951Z" fill="white"/>
<path d="M171.222 24.3383C171.401 24.3896 171.441 24.1061 171.441 24.1061M171.441 24.1061C170.866 24.0052 178.138 23.3371 184.936 23.8376C190.534 24.2499 194.851 26.1788 196.515 28.6172C192.59 32.3399 189.607 34.5723 182.961 38.7962L90.5493 88.4806L79.7612 92.9407C75.9724 94.3895 64.2591 98.1131 62.0041 98.8456C59.5252 99.6508 50.2858 101.156 44.6485 99.2989L43.8716 98.0874L44.636 95.5476L46.836 93.1159L52.9383 88.6582L65.4061 80.0889L90.4249 65.7422L133.249 40.9116L163.205 26.1647L171.441 24.1061Z" stroke="white" stroke-width="16"/>
<path d="M64.813 80.3019L90.3614 66.6043L133.186 41.7737L163.142 27.0268L171.377 24.9682C170.803 24.8673 178.074 24.1992 184.872 24.6997C190.471 25.112 194.788 27.0409 196.451 29.4793C192.527 33.202 189.543 35.4344 182.898 39.6583L90.4858 89.3427L79.6977 93.8028C75.9089 95.2516 64.1957 98.9752 61.9406 99.7077C59.4617 100.513 50.2223 102.018 44.585 100.161L43.8081 98.9495L44.5725 96.4097L46.7725 93.978L52.8748 89.5203L64.813 80.3019Z" fill="white"/>
<path d="M172.925 23.7993C173.816 23.4315 179.779 22.4568 184.997 24.1412C189.66 25.3513 195.466 27.0908 197.13 29.5293C193.205 33.252 190.222 35.4844 183.576 39.7083L91.1643 89.3927L80.3762 93.8528C76.5874 95.3016 64.8741 99.0251 62.6191 99.7576C60.1402 100.563 50.9008 102.068 45.2635 100.211L44.4866 98.9994L45.251 96.4597L47.451 94.028L53.5533 89.5702L65.4915 80.3519L91.0399 66.6543L133.864 41.8236L163.82 27.0767L172.925 23.7993Z" stroke="#223440" stroke-width="6"/>
<path d="M46.0374 35.3472L114.454 72.4312L127.799 64.8159L109.68 50.4548L46.0374 35.3472Z" fill="#223440" stroke="white" stroke-width="4"/>
<path d="M178.792 30.13L177.12 25.3911L182.618 25.2189L185.49 25.4303L188.606 26.2368L178.792 30.13Z" fill="#223440"/>
<path d="M65.0368 81.1837L66.1768 85.3065L67.9967 88.0371L71.3579 89.4384M177.12 25.3911L178.792 30.13L188.606 26.2368L185.49 25.4303L182.618 25.2189L177.12 25.3911Z" stroke="#223440" stroke-width="4"/>
<path d="M164.87 27.0855L167.426 34.1975L171.001 37.9227" stroke="#223440" stroke-width="4"/>
<path d="M49.3062 98.7774L20.8324 89.4686L26.2546 86.4059L59.0864 91.4199L49.3062 98.7774Z" fill="#223440" stroke="white" stroke-width="4"/>
<path d="M123.244 49.0903L122.312 46.0726L122.831 42.9374L125.317 40.0271L127.917 39.8499L130.056 40.3761C130.062 40.296 132.514 41.663 132.836 42.0553C133.094 42.3692 134.091 43.6222 135.147 45.1745L135.761 46.6942L135.879 50.0206L134.914 53.2672L131.914 54.569L128.633 54.3273L125.89 52.6027L124.507 51.0264L123.244 49.0903Z" fill="#223440" stroke="white" stroke-width="4"/>
<path d="M124.066 41.8554L111.329 50.1494L111.034 54.1665L111.418 56.7912L112.727 58.6186L114.876 60.7962L118.812 62.24L132.92 54.9125L129.474 54.6588L127.528 53.65L125.07 51.7381L123.58 48.4549L122.93 45.5221L124.066 41.8554Z" fill="#223440" stroke="white" stroke-width="4"/>
<path d="M150.127 43.0211C150.057 43.9719 149.487 44.7049 148.852 44.6581C148.217 44.6114 147.76 43.8027 147.83 42.8519C147.9 41.9011 148.471 41.1681 149.106 41.2149C149.74 41.2616 150.197 42.0702 150.127 43.0211Z" fill="#223440"/>
<path d="M150.127 43.0211C150.057 43.9719 149.487 44.7049 148.852 44.6581C148.217 44.6114 147.76 43.8027 147.83 42.8519C147.9 41.9011 148.471 41.1681 149.106 41.2149C149.74 41.2616 150.197 42.0702 150.127 43.0211Z" fill="#223440"/>
<path d="M150.127 43.0211C150.057 43.9719 149.487 44.7049 148.852 44.6581C148.217 44.6114 147.76 43.8027 147.83 42.8519C147.9 41.9011 148.471 41.1681 149.106 41.2149C149.74 41.2616 150.197 42.0702 150.127 43.0211Z" fill="#223440"/>
<path d="M150.127 43.0211C150.057 43.9719 149.487 44.7049 148.852 44.6581C148.217 44.6114 147.76 43.8027 147.83 42.8519C147.9 41.9011 148.471 41.1681 149.106 41.2149C149.74 41.2616 150.197 42.0702 150.127 43.0211Z" fill="#223440"/>
<path d="M150.127 43.0211C150.057 43.9719 149.487 44.7049 148.852 44.6581C148.217 44.6114 147.76 43.8027 147.83 42.8519C147.9 41.9011 148.471 41.1681 149.106 41.2149C149.74 41.2616 150.197 42.0702 150.127 43.0211Z" fill="#223440"/>
<path d="M150.127 43.0211C150.057 43.9719 149.487 44.7049 148.852 44.6581C148.217 44.6114 147.76 43.8027 147.83 42.8519C147.9 41.9011 148.471 41.1681 149.106 41.2149C149.74 41.2616 150.197 42.0702 150.127 43.0211Z" fill="#223440"/>
<path d="M150.127 43.0211C150.057 43.9719 149.487 44.7049 148.852 44.6581C148.217 44.6114 147.76 43.8027 147.83 42.8519C147.9 41.9011 148.471 41.1681 149.106 41.2149C149.74 41.2616 150.197 42.0702 150.127 43.0211Z" fill="#223440"/>
<path d="M150.127 43.0211C150.057 43.9719 149.487 44.7049 148.852 44.6581C148.217 44.6114 147.76 43.8027 147.83 42.8519C147.9 41.9011 148.471 41.1681 149.106 41.2149C149.74 41.2616 150.197 42.0702 150.127 43.0211Z" fill="#223440"/>
<path d="M150.127 43.0211C150.057 43.9719 149.487 44.7049 148.852 44.6581C148.217 44.6114 147.76 43.8027 147.83 42.8519C147.9 41.9011 148.471 41.1681 149.106 41.2149C149.74 41.2616 150.197 42.0702 150.127 43.0211Z" fill="#223440"/>
<path d="M144.46 45.4887C144.39 46.4396 143.82 47.1725 143.185 47.1258C142.55 47.0791 142.093 46.2705 142.163 45.3196C142.233 44.3687 142.804 43.6358 143.439 43.6825C144.073 43.7293 144.53 44.5379 144.46 45.4887Z" fill="#223440"/>
<path d="M144.46 45.4887C144.39 46.4396 143.82 47.1725 143.185 47.1258C142.55 47.0791 142.093 46.2705 142.163 45.3196C142.233 44.3687 142.804 43.6358 143.439 43.6825C144.073 43.7293 144.53 44.5379 144.46 45.4887Z" fill="#223440"/>
<path d="M144.46 45.4887C144.39 46.4396 143.82 47.1725 143.185 47.1258C142.55 47.0791 142.093 46.2705 142.163 45.3196C142.233 44.3687 142.804 43.6358 143.439 43.6825C144.073 43.7293 144.53 44.5379 144.46 45.4887Z" fill="#223440"/>
<path d="M144.46 45.4887C144.39 46.4396 143.82 47.1725 143.185 47.1258C142.55 47.0791 142.093 46.2705 142.163 45.3196C142.233 44.3687 142.804 43.6358 143.439 43.6825C144.073 43.7293 144.53 44.5379 144.46 45.4887Z" fill="#223440"/>
<path d="M144.46 45.4887C144.39 46.4396 143.82 47.1725 143.185 47.1258C142.55 47.0791 142.093 46.2705 142.163 45.3196C142.233 44.3687 142.804 43.6358 143.439 43.6825C144.073 43.7293 144.53 44.5379 144.46 45.4887Z" fill="#223440"/>
<path d="M144.46 45.4887C144.39 46.4396 143.82 47.1725 143.185 47.1258C142.55 47.0791 142.093 46.2705 142.163 45.3196C142.233 44.3687 142.804 43.6358 143.439 43.6825C144.073 43.7293 144.53 44.5379 144.46 45.4887Z" fill="#223440"/>
<path d="M144.46 45.4887C144.39 46.4396 143.82 47.1725 143.185 47.1258C142.55 47.0791 142.093 46.2705 142.163 45.3196C142.233 44.3687 142.804 43.6358 143.439 43.6825C144.073 43.7293 144.53 44.5379 144.46 45.4887Z" fill="#223440"/>
<path d="M144.46 45.4887C144.39 46.4396 143.82 47.1725 143.185 47.1258C142.55 47.0791 142.093 46.2705 142.163 45.3196C142.233 44.3687 142.804 43.6358 143.439 43.6825C144.073 43.7293 144.53 44.5379 144.46 45.4887Z" fill="#223440"/>
<path d="M144.46 45.4887C144.39 46.4396 143.82 47.1725 143.185 47.1258C142.55 47.0791 142.093 46.2705 142.163 45.3196C142.233 44.3687 142.804 43.6358 143.439 43.6825C144.073 43.7293 144.53 44.5379 144.46 45.4887Z" fill="#223440"/>
<path d="M155.241 40.2242C155.171 41.175 154.601 41.908 153.966 41.8612C153.331 41.8145 152.874 41.0059 152.944 40.055C153.014 39.1042 153.585 38.3712 154.22 38.418C154.854 38.4647 155.311 39.2734 155.241 40.2242Z" fill="#223440"/>
<path d="M155.241 40.2242C155.171 41.175 154.601 41.908 153.966 41.8612C153.331 41.8145 152.874 41.0059 152.944 40.055C153.014 39.1042 153.585 38.3712 154.22 38.418C154.854 38.4647 155.311 39.2734 155.241 40.2242Z" fill="#223440"/>
<path d="M155.241 40.2242C155.171 41.175 154.601 41.908 153.966 41.8612C153.331 41.8145 152.874 41.0059 152.944 40.055C153.014 39.1042 153.585 38.3712 154.22 38.418C154.854 38.4647 155.311 39.2734 155.241 40.2242Z" fill="#223440"/>
<path d="M155.241 40.2242C155.171 41.175 154.601 41.908 153.966 41.8612C153.331 41.8145 152.874 41.0059 152.944 40.055C153.014 39.1042 153.585 38.3712 154.22 38.418C154.854 38.4647 155.311 39.2734 155.241 40.2242Z" fill="#223440"/>
<path d="M155.241 40.2242C155.171 41.175 154.601 41.908 153.966 41.8612C153.331 41.8145 152.874 41.0059 152.944 40.055C153.014 39.1042 153.585 38.3712 154.22 38.418C154.854 38.4647 155.311 39.2734 155.241 40.2242Z" fill="#223440"/>
<path d="M155.241 40.2242C155.171 41.175 154.601 41.908 153.966 41.8612C153.331 41.8145 152.874 41.0059 152.944 40.055C153.014 39.1042 153.585 38.3712 154.22 38.418C154.854 38.4647 155.311 39.2734 155.241 40.2242Z" fill="#223440"/>
<path d="M155.241 40.2242C155.171 41.175 154.601 41.908 153.966 41.8612C153.331 41.8145 152.874 41.0059 152.944 40.055C153.014 39.1042 153.585 38.3712 154.22 38.418C154.854 38.4647 155.311 39.2734 155.241 40.2242Z" fill="#223440"/>
<path d="M155.241 40.2242C155.171 41.175 154.601 41.908 153.966 41.8612C153.331 41.8145 152.874 41.0059 152.944 40.055C153.014 39.1042 153.585 38.3712 154.22 38.418C154.854 38.4647 155.311 39.2734 155.241 40.2242Z" fill="#223440"/>
<path d="M155.241 40.2242C155.171 41.175 154.601 41.908 153.966 41.8612C153.331 41.8145 152.874 41.0059 152.944 40.055C153.014 39.1042 153.585 38.3712 154.22 38.418C154.854 38.4647 155.311 39.2734 155.241 40.2242Z" fill="#223440"/>
<path d="M160.334 37.7142C160.264 38.6651 159.693 39.398 159.059 39.3513C158.424 39.3046 157.967 38.4959 158.037 37.5451C158.107 36.5943 158.678 35.8613 159.312 35.908C159.947 35.9547 160.404 36.7634 160.334 37.7142Z" fill="#223440"/>
<path d="M160.334 37.7142C160.264 38.6651 159.693 39.398 159.059 39.3513C158.424 39.3046 157.967 38.4959 158.037 37.5451C158.107 36.5943 158.678 35.8613 159.312 35.908C159.947 35.9547 160.404 36.7634 160.334 37.7142Z" fill="#223440"/>
<path d="M160.334 37.7142C160.264 38.6651 159.693 39.398 159.059 39.3513C158.424 39.3046 157.967 38.4959 158.037 37.5451C158.107 36.5943 158.678 35.8613 159.312 35.908C159.947 35.9547 160.404 36.7634 160.334 37.7142Z" fill="#223440"/>
<path d="M160.334 37.7142C160.264 38.6651 159.693 39.398 159.059 39.3513C158.424 39.3046 157.967 38.4959 158.037 37.5451C158.107 36.5943 158.678 35.8613 159.312 35.908C159.947 35.9547 160.404 36.7634 160.334 37.7142Z" fill="#223440"/>
<path d="M160.334 37.7142C160.264 38.6651 159.693 39.398 159.059 39.3513C158.424 39.3046 157.967 38.4959 158.037 37.5451C158.107 36.5943 158.678 35.8613 159.312 35.908C159.947 35.9547 160.404 36.7634 160.334 37.7142Z" fill="#223440"/>
<path d="M160.334 37.7142C160.264 38.6651 159.693 39.398 159.059 39.3513C158.424 39.3046 157.967 38.4959 158.037 37.5451C158.107 36.5943 158.678 35.8613 159.312 35.908C159.947 35.9547 160.404 36.7634 160.334 37.7142Z" fill="#223440"/>
<path d="M160.334 37.7142C160.264 38.6651 159.693 39.398 159.059 39.3513C158.424 39.3046 157.967 38.4959 158.037 37.5451C158.107 36.5943 158.678 35.8613 159.312 35.908C159.947 35.9547 160.404 36.7634 160.334 37.7142Z" fill="#223440"/>
<path d="M160.334 37.7142C160.264 38.6651 159.693 39.398 159.059 39.3513C158.424 39.3046 157.967 38.4959 158.037 37.5451C158.107 36.5943 158.678 35.8613 159.312 35.908C159.947 35.9547 160.404 36.7634 160.334 37.7142Z" fill="#223440"/>
<path d="M160.334 37.7142C160.264 38.6651 159.693 39.398 159.059 39.3513C158.424 39.3046 157.967 38.4959 158.037 37.5451C158.107 36.5943 158.678 35.8613 159.312 35.908C159.947 35.9547 160.404 36.7634 160.334 37.7142Z" fill="#223440"/>
<path d="M86.9109 78.1786C86.8409 79.1291 86.2701 79.8621 85.6355 79.8154C85.0009 79.7687 84.5437 78.96 84.6137 78.0095C84.6837 77.0584 85.2545 76.3254 85.8891 76.3721C86.5237 76.4188 86.9809 77.2275 86.9109 78.1786Z" fill="#223440"/>
<path d="M86.9109 78.1786C86.8409 79.1291 86.2701 79.8621 85.6355 79.8154C85.0009 79.7687 84.5437 78.96 84.6137 78.0095C84.6837 77.0584 85.2545 76.3254 85.8891 76.3721C86.5237 76.4188 86.9809 77.2275 86.9109 78.1786Z" fill="#223440"/>
<path d="M86.9109 78.1786C86.8409 79.1291 86.2701 79.8621 85.6355 79.8154C85.0009 79.7687 84.5437 78.96 84.6137 78.0095C84.6837 77.0584 85.2545 76.3254 85.8891 76.3721C86.5237 76.4188 86.9809 77.2275 86.9109 78.1786Z" fill="#223440"/>
<path d="M86.9109 78.1786C86.8409 79.1291 86.2701 79.8621 85.6355 79.8154C85.0009 79.7687 84.5437 78.96 84.6137 78.0095C84.6837 77.0584 85.2545 76.3254 85.8891 76.3721C86.5237 76.4188 86.9809 77.2275 86.9109 78.1786Z" fill="#223440"/>
<path d="M86.9109 78.1786C86.8409 79.1291 86.2701 79.8621 85.6355 79.8154C85.0009 79.7687 84.5437 78.96 84.6137 78.0095C84.6837 77.0584 85.2545 76.3254 85.8891 76.3721C86.5237 76.4188 86.9809 77.2275 86.9109 78.1786Z" fill="#223440"/>
<path d="M86.9109 78.1786C86.8409 79.1291 86.2701 79.8621 85.6355 79.8154C85.0009 79.7687 84.5437 78.96 84.6137 78.0095C84.6837 77.0584 85.2545 76.3254 85.8891 76.3721C86.5237 76.4188 86.9809 77.2275 86.9109 78.1786Z" fill="#223440"/>
<path d="M86.9109 78.1786C86.8409 79.1291 86.2701 79.8621 85.6355 79.8154C85.0009 79.7687 84.5437 78.96 84.6137 78.0095C84.6837 77.0584 85.2545 76.3254 85.8891 76.3721C86.5237 76.4188 86.9809 77.2275 86.9109 78.1786Z" fill="#223440"/>
<path d="M86.9109 78.1786C86.8409 79.1291 86.2701 79.8621 85.6355 79.8154C85.0009 79.7687 84.5437 78.96 84.6137 78.0095C84.6837 77.0584 85.2545 76.3254 85.8891 76.3721C86.5237 76.4188 86.9809 77.2275 86.9109 78.1786Z" fill="#223440"/>
<path d="M86.9109 78.1786C86.8409 79.1291 86.2701 79.8621 85.6355 79.8154C85.0009 79.7687 84.5437 78.96 84.6137 78.0095C84.6837 77.0584 85.2545 76.3254 85.8891 76.3721C86.5237 76.4188 86.9809 77.2275 86.9109 78.1786Z" fill="#223440"/>
<path d="M81.2438 80.6464C81.1738 81.5969 80.603 82.3299 79.9684 82.2832C79.3338 82.2364 78.8766 81.4278 78.9466 80.4772C79.0166 79.5262 79.5874 78.7932 80.222 78.8399C80.8566 78.8866 81.3138 79.6953 81.2438 80.6464Z" fill="#223440"/>
<path d="M81.2438 80.6464C81.1738 81.5969 80.603 82.3299 79.9684 82.2832C79.3338 82.2364 78.8766 81.4278 78.9466 80.4772C79.0166 79.5262 79.5874 78.7932 80.222 78.8399C80.8566 78.8866 81.3138 79.6953 81.2438 80.6464Z" fill="#223440"/>
<path d="M81.2438 80.6464C81.1738 81.5969 80.603 82.3299 79.9684 82.2832C79.3338 82.2364 78.8766 81.4278 78.9466 80.4772C79.0166 79.5262 79.5874 78.7932 80.222 78.8399C80.8566 78.8866 81.3138 79.6953 81.2438 80.6464Z" fill="#223440"/>
<path d="M81.2438 80.6464C81.1738 81.5969 80.603 82.3299 79.9684 82.2832C79.3338 82.2364 78.8766 81.4278 78.9466 80.4772C79.0166 79.5262 79.5874 78.7932 80.222 78.8399C80.8566 78.8866 81.3138 79.6953 81.2438 80.6464Z" fill="#223440"/>
<path d="M81.2438 80.6464C81.1738 81.5969 80.603 82.3299 79.9684 82.2832C79.3338 82.2364 78.8766 81.4278 78.9466 80.4772C79.0166 79.5262 79.5874 78.7932 80.222 78.8399C80.8566 78.8866 81.3138 79.6953 81.2438 80.6464Z" fill="#223440"/>
<path d="M81.2438 80.6464C81.1738 81.5969 80.603 82.3299 79.9684 82.2832C79.3338 82.2364 78.8766 81.4278 78.9466 80.4772C79.0166 79.5262 79.5874 78.7932 80.222 78.8399C80.8566 78.8866 81.3138 79.6953 81.2438 80.6464Z" fill="#223440"/>
<path d="M81.2438 80.6464C81.1738 81.5969 80.603 82.3299 79.9684 82.2832C79.3338 82.2364 78.8766 81.4278 78.9466 80.4772C79.0166 79.5262 79.5874 78.7932 80.222 78.8399C80.8566 78.8866 81.3138 79.6953 81.2438 80.6464Z" fill="#223440"/>
<path d="M81.2438 80.6464C81.1738 81.5969 80.603 82.3299 79.9684 82.2832C79.3338 82.2364 78.8766 81.4278 78.9466 80.4772C79.0166 79.5262 79.5874 78.7932 80.222 78.8399C80.8566 78.8866 81.3138 79.6953 81.2438 80.6464Z" fill="#223440"/>
<path d="M81.2438 80.6464C81.1738 81.5969 80.603 82.3299 79.9684 82.2832C79.3338 82.2364 78.8766 81.4278 78.9466 80.4772C79.0166 79.5262 79.5874 78.7932 80.222 78.8399C80.8566 78.8866 81.3138 79.6953 81.2438 80.6464Z" fill="#223440"/>
<path d="M92.0248 75.3817C91.9548 76.3322 91.384 77.0652 90.7494 77.0184C90.1148 76.9717 89.6576 76.163 89.7276 75.2125C89.7976 74.2614 90.3684 73.5284 91.003 73.5752C91.6376 73.6219 92.0948 74.4306 92.0248 75.3817Z" fill="#223440"/>
<path d="M92.0248 75.3817C91.9548 76.3322 91.384 77.0652 90.7494 77.0184C90.1148 76.9717 89.6576 76.163 89.7276 75.2125C89.7976 74.2614 90.3684 73.5284 91.003 73.5752C91.6376 73.6219 92.0948 74.4306 92.0248 75.3817Z" fill="#223440"/>
<path d="M92.0248 75.3817C91.9548 76.3322 91.384 77.0652 90.7494 77.0184C90.1148 76.9717 89.6576 76.163 89.7276 75.2125C89.7976 74.2614 90.3684 73.5284 91.003 73.5752C91.6376 73.6219 92.0948 74.4306 92.0248 75.3817Z" fill="#223440"/>
<path d="M92.0248 75.3817C91.9548 76.3322 91.384 77.0652 90.7494 77.0184C90.1148 76.9717 89.6576 76.163 89.7276 75.2125C89.7976 74.2614 90.3684 73.5284 91.003 73.5752C91.6376 73.6219 92.0948 74.4306 92.0248 75.3817Z" fill="#223440"/>
<path d="M92.0248 75.3817C91.9548 76.3322 91.384 77.0652 90.7494 77.0184C90.1148 76.9717 89.6576 76.163 89.7276 75.2125C89.7976 74.2614 90.3684 73.5284 91.003 73.5752C91.6376 73.6219 92.0948 74.4306 92.0248 75.3817Z" fill="#223440"/>
<path d="M92.0248 75.3817C91.9548 76.3322 91.384 77.0652 90.7494 77.0184C90.1148 76.9717 89.6576 76.163 89.7276 75.2125C89.7976 74.2614 90.3684 73.5284 91.003 73.5752C91.6376 73.6219 92.0948 74.4306 92.0248 75.3817Z" fill="#223440"/>
<path d="M92.0248 75.3817C91.9548 76.3322 91.384 77.0652 90.7494 77.0184C90.1148 76.9717 89.6576 76.163 89.7276 75.2125C89.7976 74.2614 90.3684 73.5284 91.003 73.5752C91.6376 73.6219 92.0948 74.4306 92.0248 75.3817Z" fill="#223440"/>
<path d="M92.0248 75.3817C91.9548 76.3322 91.384 77.0652 90.7494 77.0184C90.1148 76.9717 89.6576 76.163 89.7276 75.2125C89.7976 74.2614 90.3684 73.5284 91.003 73.5752C91.6376 73.6219 92.0948 74.4306 92.0248 75.3817Z" fill="#223440"/>
<path d="M92.0248 75.3817C91.9548 76.3322 91.384 77.0652 90.7494 77.0184C90.1148 76.9717 89.6576 76.163 89.7276 75.2125C89.7976 74.2614 90.3684 73.5284 91.003 73.5752C91.6376 73.6219 92.0948 74.4306 92.0248 75.3817Z" fill="#223440"/>
<path d="M97.1176 72.8716C97.0475 73.8227 96.4768 74.5556 95.8422 74.5089C95.2076 74.4622 94.7504 73.6535 94.8204 72.7024C94.8904 71.7519 95.4611 71.0187 96.0957 71.0654C96.7303 71.1121 97.1876 71.9211 97.1176 72.8716Z" fill="#223440"/>
<path d="M97.1176 72.8716C97.0475 73.8227 96.4768 74.5556 95.8422 74.5089C95.2076 74.4622 94.7504 73.6535 94.8204 72.7024C94.8904 71.7519 95.4611 71.0187 96.0957 71.0654C96.7303 71.1121 97.1876 71.9211 97.1176 72.8716Z" fill="#223440"/>
<path d="M97.1176 72.8716C97.0475 73.8227 96.4768 74.5556 95.8422 74.5089C95.2076 74.4622 94.7504 73.6535 94.8204 72.7024C94.8904 71.7519 95.4611 71.0187 96.0957 71.0654C96.7303 71.1121 97.1876 71.9211 97.1176 72.8716Z" fill="#223440"/>
<path d="M97.1176 72.8716C97.0475 73.8227 96.4768 74.5556 95.8422 74.5089C95.2076 74.4622 94.7504 73.6535 94.8204 72.7024C94.8904 71.7519 95.4611 71.0187 96.0957 71.0654C96.7303 71.1121 97.1876 71.9211 97.1176 72.8716Z" fill="#223440"/>
<path d="M97.1176 72.8716C97.0475 73.8227 96.4768 74.5556 95.8422 74.5089C95.2076 74.4622 94.7504 73.6535 94.8204 72.7024C94.8904 71.7519 95.4611 71.0187 96.0957 71.0654C96.7303 71.1121 97.1876 71.9211 97.1176 72.8716Z" fill="#223440"/>
<path d="M97.1176 72.8716C97.0475 73.8227 96.4768 74.5556 95.8422 74.5089C95.2076 74.4622 94.7504 73.6535 94.8204 72.7024C94.8904 71.7519 95.4611 71.0187 96.0957 71.0654C96.7303 71.1121 97.1876 71.9211 97.1176 72.8716Z" fill="#223440"/>
<path d="M97.1176 72.8716C97.0475 73.8227 96.4768 74.5556 95.8422 74.5089C95.2076 74.4622 94.7504 73.6535 94.8204 72.7024C94.8904 71.7519 95.4611 71.0187 96.0957 71.0654C96.7303 71.1121 97.1876 71.9211 97.1176 72.8716Z" fill="#223440"/>
<path d="M97.1176 72.8716C97.0475 73.8227 96.4768 74.5556 95.8422 74.5089C95.2076 74.4622 94.7504 73.6535 94.8204 72.7024C94.8904 71.7519 95.4611 71.0187 96.0957 71.0654C96.7303 71.1121 97.1876 71.9211 97.1176 72.8716Z" fill="#223440"/>
<path d="M97.1176 72.8716C97.0475 73.8227 96.4768 74.5556 95.8422 74.5089C95.2076 74.4622 94.7504 73.6535 94.8204 72.7024C94.8904 71.7519 95.4611 71.0187 96.0957 71.0654C96.7303 71.1121 97.1876 71.9211 97.1176 72.8716Z" fill="#223440"/>
</g>
</g>
<path d="M130.078 133.125C129.745 132.385 129.417 131.74 129.094 131.188C128.771 130.625 128.349 130.042 127.828 129.438C127.307 128.833 126.75 128.339 126.156 127.953C125.562 127.568 124.833 127.25 123.969 127C123.104 126.75 122.151 126.625 121.109 126.625C119.984 126.625 118.964 126.854 118.047 127.312C117.13 127.771 116.375 128.37 115.781 129.109C115.198 129.849 114.703 130.708 114.297 131.688C113.901 132.656 113.62 133.635 113.453 134.625C113.286 135.604 113.203 136.599 113.203 137.609C113.203 138.609 113.292 139.604 113.469 140.594C113.646 141.573 113.938 142.547 114.344 143.516C114.76 144.484 115.271 145.333 115.875 146.062C116.479 146.792 117.24 147.385 118.156 147.844C119.083 148.292 120.109 148.516 121.234 148.516C123.526 148.516 125.12 148.005 126.016 146.984V140.641C126.016 140.422 125.927 140.229 125.75 140.062C125.573 139.885 125.37 139.75 125.141 139.656C124.911 139.562 124.604 139.479 124.219 139.406C123.844 139.323 123.536 139.266 123.297 139.234C123.057 139.203 122.755 139.172 122.391 139.141C122.349 138.974 122.328 138.849 122.328 138.766C122.328 138.693 122.349 138.573 122.391 138.406C124.745 138.49 126.557 138.531 127.828 138.531C129.12 138.531 130.932 138.49 133.266 138.406C133.318 138.615 133.344 138.734 133.344 138.766C133.344 138.807 133.318 138.932 133.266 139.141C132.901 139.172 132.599 139.203 132.359 139.234C132.12 139.266 131.807 139.323 131.422 139.406C131.047 139.479 130.745 139.562 130.516 139.656C130.297 139.75 130.099 139.885 129.922 140.062C129.745 140.229 129.656 140.422 129.656 140.641V142.953C129.656 144.932 129.891 146.552 130.359 147.812C128.641 148.448 127.115 148.911 125.781 149.203C124.448 149.495 122.932 149.641 121.234 149.641C120.224 149.641 119.208 149.536 118.188 149.328C117.167 149.12 116.094 148.729 114.969 148.156C113.854 147.583 112.87 146.865 112.016 146C111.172 145.135 110.469 143.979 109.906 142.531C109.354 141.083 109.078 139.443 109.078 137.609C109.078 136.286 109.219 135.062 109.5 133.938C109.792 132.802 110.177 131.828 110.656 131.016C111.135 130.203 111.703 129.474 112.359 128.828C113.026 128.182 113.719 127.656 114.438 127.25C115.156 126.844 115.911 126.51 116.703 126.25C117.505 125.979 118.266 125.792 118.984 125.688C119.703 125.573 120.411 125.516 121.109 125.516C122.276 125.516 123.385 125.589 124.438 125.734C125.5 125.87 126.557 126.042 127.609 126.25C128.661 126.448 129.495 126.583 130.109 126.656C129.953 127.125 129.875 127.786 129.875 128.641C129.875 130.057 130.13 131.438 130.641 132.781C130.578 132.969 130.391 133.083 130.078 133.125Z" fill="#223440"/>
<defs>
<filter id="filter0_d_262_795" x="11.8971" y="15.6536" width="199.064" height="100.535" filterUnits="userSpaceOnUse" color-interpolation-filters="sRGB">
<feFlood flood-opacity="0" result="BackgroundImageFix"/>
<feColorMatrix in="SourceAlpha" type="matrix" values="0 0 0 0 0 0 0 0 0 0 0 0 0 0 0 0 0 0 127 0" result="hardAlpha"/>
<feOffset dy="4"/>
<feGaussianBlur stdDeviation="2"/>
<feComposite in2="hardAlpha" operator="out"/>
<feColorMatrix type="matrix" values="0 0 0 0 0 0 0 0 0 0 0 0 0 0 0 0 0 0 0.25 0"/>
<feBlend mode="normal" in2="BackgroundImageFix" result="effect1_dropShadow_262_795"/>
<feBlend mode="normal" in="SourceGraphic" in2="effect1_dropShadow_262_795" result="shape"/>
</filter>
<linearGradient id="paint0_linear_262_795" x1="44.2461" y1="7.31343" x2="44.6435" y2="154.675" gradientUnits="userSpaceOnUse">
<stop stop-color="#48B5EF"/>
<stop offset="1" stop-color="#1D2D3A"/>
</linearGradient>
<clipPath id="clip0_262_795">
<rect width="201.652" height="108.055" fill="white" transform="translate(21.9346) rotate(4.21107)"/>
</clipPath>
</defs>
</svg>
